<?xml version="1.0" encoding="UTF-8"?>
<!-- Created with Inkscape (http://www.inkscape.org/) -->
<svg width="2.8223mm" height="2.8223mm" version="1.1" viewBox="0 0 2.8223 2.8223" xmlns="http://www.w3.org/2000/svg">
 <g transform="translate(-87.184 -155.27)">
  <g transform="matrix(1 0 0 .57629 -.0027128 66.389)" stroke-linecap="round" stroke-linejoin="round" stroke-width="2.646" aria-label="N">
   <path d="m87.185 159.13t0.1124 0q0.11327 0 0.26112 0 0.14786 0 0.26026 0 0.11327 0 0.11327 0t0-0.11327q0-0.1124 0-0.26026 0-0.14785 0-0.26026 0-0.11327 0-0.11327t-0.11327 0q-0.1124 0-0.26026 0-0.14786 0-0.26112 0-0.1124 0-0.1124 0t0 0.11327q0 0.11241 0 0.26026 0 0.14786 0 0.26026 0 0.11327 0 0.11327zm0 0t0.1124 0q0.11327 0 0.26112 0 0.14786 0 0.26026 0 0.11327 0 0.11327 0t0-0.11327q0-0.1124 0-0.26026 0-0.14785 0-0.26026 0-0.11327 0-0.11327t-0.11327 0q-0.1124 0-0.26026 0-0.14786 0-0.26112 0-0.1124 0-0.1124 0t0 0.11327q0 0.11241 0 0.26026 0 0.14786 0 0.26026 0 0.11327 0 0.11327zm0 0t0.1124 0q0.11327 0 0.26112 0 0.14786 0 0.26026 0 0.11327 0 0.11327 0t0-0.11327q0-0.1124 0-0.26026 0-0.14785 0-0.26026 0-0.11327 0-0.11327t-0.11327 0q-0.1124 0-0.26026 0-0.14786 0-0.26112 0-0.1124 0-0.1124 0t0 0.11327q0 0.11241 0 0.26026 0 0.14786 0 0.26026 0 0.11327 0 0.11327zm0 0t0.1124 0q0.11327 0 0.26112 0 0.14786 0 0.26026 0 0.11327 0 0.11327 0t0-0.11327q0-0.1124 0-0.26026 0-0.14785 0-0.26026 0-0.11327 0-0.11327t-0.11327 0q-0.1124 0-0.26026 0-0.14786 0-0.26112 0-0.1124 0-0.1124 0t0 0.11327q0 0.11241 0 0.26026 0 0.14786 0 0.26026 0 0.11327 0 0.11327zm2.0752 0t0.1124 0q0.11327 0 0.26112 0t0.26026 0q0.11327 0 0.11327 0t0-0.11327q0-0.1124 0-0.26026 0-0.14785 0-0.26026 0-0.11327 0-0.11327t-0.11327 0q-0.1124 0-0.26026 0t-0.26112 0q-0.1124 0-0.1124 0t0 0.11327q0 0.11241 0 0.26026 0 0.14786 0 0.26026 0 0.11327 0 0.11327zm0 0t0.1124 0q0.11327 0 0.26112 0t0.26026 0q0.11327 0 0.11327 0t0-0.11327q0-0.1124 0-0.26026 0-0.14785 0-0.26026 0-0.11327 0-0.11327t-0.11327 0q-0.1124 0-0.26026 0t-0.26112 0q-0.1124 0-0.1124 0t0 0.11327q0 0.11241 0 0.26026 0 0.14786 0 0.26026 0 0.11327 0 0.11327zm0 0t0.1124 0q0.11327 0 0.26112 0t0.26026 0q0.11327 0 0.11327 0t0-0.11327q0-0.1124 0-0.26026 0-0.14785 0-0.26026 0-0.11327 0-0.11327t-0.11327 0q-0.1124 0-0.26026 0t-0.26112 0q-0.1124 0-0.1124 0t0 0.11327q0 0.11241 0 0.26026 0 0.14786 0 0.26026 0 0.11327 0 0.11327zm0 0t0.1124 0q0.11327 0 0.26112 0t0.26026 0q0.11327 0 0.11327 0t0-0.11327q0-0.1124 0-0.26026 0-0.14785 0-0.26026 0-0.11327 0-0.11327t-0.11327 0q-0.1124 0-0.26026 0t-0.26112 0q-0.1124 0-0.1124 0t0 0.11327q0 0.11241 0 0.26026 0 0.14786 0 0.26026 0 0.11327 0 0.11327zm-2.0752-0.41503t0.1124 0q0.11327 0 0.26112 0 0.14786 0 0.26026 0 0.11327 0 0.11327 0t0-0.11241q0-0.11327 0-0.26112 0-0.14786 0-0.26026 0-0.11327 0-0.11327t-0.11327 0q-0.1124 0-0.26026 0-0.14786 0-0.26112 0-0.1124 0-0.1124 0t0 0.11327q0 0.1124 0 0.26026 0 0.14785 0 0.26112 0 0.11241 0 0.11241zm0 0t0.1124 0q0.11327 0 0.26112 0 0.14786 0 0.26026 0 0.11327 0 0.11327 0t0-0.11241q0-0.11327 0-0.26112 0-0.14786 0-0.26026 0-0.11327 0-0.11327t-0.11327 0q-0.1124 0-0.26026 0-0.14786 0-0.26112 0-0.1124 0-0.1124 0t0 0.11327q0 0.1124 0 0.26026 0 0.14785 0 0.26112 0 0.11241 0 0.11241zm0 0t0.1124 0q0.11327 0 0.26112 0 0.14786 0 0.26026 0 0.11327 0 0.11327 0t0-0.11241q0-0.11327 0-0.26112 0-0.14786 0-0.26026 0-0.11327 0-0.11327t-0.11327 0q-0.1124 0-0.26026 0-0.14786 0-0.26112 0-0.1124 0-0.1124 0t0 0.11327q0 0.1124 0 0.26026 0 0.14785 0 0.26112 0 0.11241 0 0.11241zm0 0t0.1124 0q0.11327 0 0.26112 0 0.14786 0 0.26026 0 0.11327 0 0.11327 0t0-0.11241q0-0.11327 0-0.26112 0-0.14786 0-0.26026 0-0.11327 0-0.11327t-0.11327 0q-0.1124 0-0.26026 0-0.14786 0-0.26112 0-0.1124 0-0.1124 0t0 0.11327q0 0.1124 0 0.26026 0 0.14785 0 0.26112 0 0.11241 0 0.11241zm2.0752 0t0.1124 0q0.11327 0 0.26112 0t0.26026 0q0.11327 0 0.11327 0t0-0.11241q0-0.11327 0-0.26112 0-0.14786 0-0.26026 0-0.11327 0-0.11327t-0.11327 0q-0.1124 0-0.26026 0t-0.26112 0q-0.1124 0-0.1124 0t0 0.11327q0 0.1124 0 0.26026 0 0.14785 0 0.26112 0 0.11241 0 0.11241zm0 0t0.1124 0q0.11327 0 0.26112 0t0.26026 0q0.11327 0 0.11327 0t0-0.11241q0-0.11327 0-0.26112 0-0.14786 0-0.26026 0-0.11327 0-0.11327t-0.11327 0q-0.1124 0-0.26026 0t-0.26112 0q-0.1124 0-0.1124 0t0 0.11327q0 0.1124 0 0.26026 0 0.14785 0 0.26112 0 0.11241 0 0.11241zm0 0t0.1124 0q0.11327 0 0.26112 0t0.26026 0q0.11327 0 0.11327 0t0-0.11241q0-0.11327 0-0.26112 0-0.14786 0-0.26026 0-0.11327 0-0.11327t-0.11327 0q-0.1124 0-0.26026 0t-0.26112 0q-0.1124 0-0.1124 0t0 0.11327q0 0.1124 0 0.26026 0 0.14785 0 0.26112 0 0.11241 0 0.11241zm0 0t0.1124 0q0.11327 0 0.26112 0t0.26026 0q0.11327 0 0.11327 0t0-0.11241q0-0.11327 0-0.26112 0-0.14786 0-0.26026 0-0.11327 0-0.11327t-0.11327 0q-0.1124 0-0.26026 0t-0.26112 0q-0.1124 0-0.1124 0t0 0.11327q0 0.1124 0 0.26026 0 0.14785 0 0.26112 0 0.11241 0 0.11241zm-2.0752-0.41504t0.1124 0q0.11327 0 0.26112 0 0.14786 0 0.26026 0 0.11327 0 0.11327 0t0-0.1124q0-0.11327 0-0.26112 0-0.14786 0-0.26026 0-0.11327 0-0.11327t-0.11327 0q-0.1124 0-0.26026 0-0.14786 0-0.26112 0-0.1124 0-0.1124 0t0 0.11327q0 0.1124 0 0.26026 0 0.14785 0 0.26112 0 0.1124 0 0.1124zm0 0t0.1124 0q0.11327 0 0.26112 0 0.14786 0 0.26026 0 0.11327 0 0.11327 0t0-0.1124q0-0.11327 0-0.26112 0-0.14786 0-0.26026 0-0.11327 0-0.11327t-0.11327 0q-0.1124 0-0.26026 0-0.14786 0-0.26112 0-0.1124 0-0.1124 0t0 0.11327q0 0.1124 0 0.26026 0 0.14785 0 0.26112 0 0.1124 0 0.1124zm0 0t0.1124 0q0.11327 0 0.26112 0 0.14786 0 0.26026 0 0.11327 0 0.11327 0t0-0.1124q0-0.11327 0-0.26112 0-0.14786 0-0.26026 0-0.11327 0-0.11327t-0.11327 0q-0.1124 0-0.26026 0-0.14786 0-0.26112 0-0.1124 0-0.1124 0t0 0.11327q0 0.1124 0 0.26026 0 0.14785 0 0.26112 0 0.1124 0 0.1124zm0 0t0.1124 0q0.11327 0 0.26112 0 0.14786 0 0.26026 0 0.11327 0 0.11327 0t0-0.1124q0-0.11327 0-0.26112 0-0.14786 0-0.26026 0-0.11327 0-0.11327t-0.11327 0q-0.1124 0-0.26026 0-0.14786 0-0.26112 0-0.1124 0-0.1124 0t0 0.11327q0 0.1124 0 0.26026 0 0.14785 0 0.26112 0 0.1124 0 0.1124zm1.6601 0t0.1124 0q0.11327 0 0.26112 0 0.14786 0 0.26026 0 0.11327 0 0.11327 0t0-0.1124q0-0.11327 0-0.26112 0-0.14786 0-0.26026 0-0.11327 0-0.11327t-0.11327 0q-0.1124 0-0.26026 0-0.14786 0-0.26112 0-0.1124 0-0.1124 0t0 0.11327q0 0.1124 0 0.26026 0 0.14785 0 0.26112 0 0.1124 0 0.1124zm0 0t0.1124 0q0.11327 0 0.26112 0 0.14786 0 0.26026 0 0.11327 0 0.11327 0t0-0.1124q0-0.11327 0-0.26112 0-0.14786 0-0.26026 0-0.11327 0-0.11327t-0.11327 0q-0.1124 0-0.26026 0-0.14786 0-0.26112 0-0.1124 0-0.1124 0t0 0.11327q0 0.1124 0 0.26026 0 0.14785 0 0.26112 0 0.1124 0 0.1124zm0 0t0.1124 0q0.11327 0 0.26112 0 0.14786 0 0.26026 0 0.11327 0 0.11327 0t0-0.1124q0-0.11327 0-0.26112 0-0.14786 0-0.26026 0-0.11327 0-0.11327t-0.11327 0q-0.1124 0-0.26026 0-0.14786 0-0.26112 0-0.1124 0-0.1124 0t0 0.11327q0 0.1124 0 0.26026 0 0.14785 0 0.26112 0 0.1124 0 0.1124zm0 0t0.1124 0q0.11327 0 0.26112 0 0.14786 0 0.26026 0 0.11327 0 0.11327 0t0-0.1124q0-0.11327 0-0.26112 0-0.14786 0-0.26026 0-0.11327 0-0.11327t-0.11327 0q-0.1124 0-0.26026 0-0.14786 0-0.26112 0-0.1124 0-0.1124 0t0 0.11327q0 0.1124 0 0.26026 0 0.14785 0 0.26112 0 0.1124 0 0.1124zm0.41503 0t0.1124 0q0.11327 0 0.26112 0t0.26026 0q0.11327 0 0.11327 0t0-0.1124q0-0.11327 0-0.26112 0-0.14786 0-0.26026 0-0.11327 0-0.11327t-0.11327 0q-0.1124 0-0.26026 0t-0.26112 0q-0.1124 0-0.1124 0t0 0.11327q0 0.1124 0 0.26026 0 0.14785 0 0.26112 0 0.1124 0 0.1124zm0 0t0.1124 0q0.11327 0 0.26112 0t0.26026 0q0.11327 0 0.11327 0t0-0.1124q0-0.11327 0-0.26112 0-0.14786 0-0.26026 0-0.11327 0-0.11327t-0.11327 0q-0.1124 0-0.26026 0t-0.26112 0q-0.1124 0-0.1124 0t0 0.11327q0 0.1124 0 0.26026 0 0.14785 0 0.26112 0 0.1124 0 0.1124zm0 0t0.1124 0q0.11327 0 0.26112 0t0.26026 0q0.11327 0 0.11327 0t0-0.1124q0-0.11327 0-0.26112 0-0.14786 0-0.26026 0-0.11327 0-0.11327t-0.11327 0q-0.1124 0-0.26026 0t-0.26112 0q-0.1124 0-0.1124 0t0 0.11327q0 0.1124 0 0.26026 0 0.14785 0 0.26112 0 0.1124 0 0.1124zm0 0t0.1124 0q0.11327 0 0.26112 0t0.26026 0q0.11327 0 0.11327 0t0-0.1124q0-0.11327 0-0.26112 0-0.14786 0-0.26026 0-0.11327 0-0.11327t-0.11327 0q-0.1124 0-0.26026 0t-0.26112 0q-0.1124 0-0.1124 0t0 0.11327q0 0.1124 0 0.26026 0 0.14785 0 0.26112 0 0.1124 0 0.1124zm-2.0752-0.41503t0.1124 0q0.11327 0 0.26112 0 0.14786 0 0.26026 0 0.11327 0 0.11327 0t0-0.1124q0-0.11327 0-0.26113 0-0.14785 0-0.26026 0-0.11327 0-0.11327t-0.11327 0q-0.1124 0-0.26026 0-0.14786 0-0.26112 0-0.1124 0-0.1124 0t0 0.11327q0 0.11241 0 0.26026 0 0.14786 0 0.26113 0 0.1124 0 0.1124zm0 0t0.1124 0q0.11327 0 0.26112 0 0.14786 0 0.26026 0 0.11327 0 0.11327 0t0-0.1124q0-0.11327 0-0.26113 0-0.14785 0-0.26026 0-0.11327 0-0.11327t-0.11327 0q-0.1124 0-0.26026 0-0.14786 0-0.26112 0-0.1124 0-0.1124 0t0 0.11327q0 0.11241 0 0.26026 0 0.14786 0 0.26113 0 0.1124 0 0.1124zm0 0t0.1124 0q0.11327 0 0.26112 0 0.14786 0 0.26026 0 0.11327 0 0.11327 0t0-0.1124q0-0.11327 0-0.26113 0-0.14785 0-0.26026 0-0.11327 0-0.11327t-0.11327 0q-0.1124 0-0.26026 0-0.14786 0-0.26112 0-0.1124 0-0.1124 0t0 0.11327q0 0.11241 0 0.26026 0 0.14786 0 0.26113 0 0.1124 0 0.1124zm0 0t0.1124 0q0.11327 0 0.26112 0 0.14786 0 0.26026 0 0.11327 0 0.11327 0t0-0.1124q0-0.11327 0-0.26113 0-0.14785 0-0.26026 0-0.11327 0-0.11327t-0.11327 0q-0.1124 0-0.26026 0-0.14786 0-0.26112 0-0.1124 0-0.1124 0t0 0.11327q0 0.11241 0 0.26026 0 0.14786 0 0.26113 0 0.1124 0 0.1124zm1.4526 0t0.1124 0q0.11327 0 0.26112 0 0.14786 0 0.26026 0 0.11327 0 0.11327 0t0-0.1124q0-0.11327 0-0.26113 0-0.14785 0-0.26026 0-0.11327 0-0.11327t-0.11327 0q-0.1124 0-0.26026 0-0.14786 0-0.26112 0-0.1124 0-0.1124 0t0 0.11327q0 0.11241 0 0.26026 0 0.14786 0 0.26113 0 0.1124 0 0.1124zm0 0t0.1124 0q0.11327 0 0.26112 0 0.14786 0 0.26026 0 0.11327 0 0.11327 0t0-0.1124q0-0.11327 0-0.26113 0-0.14785 0-0.26026 0-0.11327 0-0.11327t-0.11327 0q-0.1124 0-0.26026 0-0.14786 0-0.26112 0-0.1124 0-0.1124 0t0 0.11327q0 0.11241 0 0.26026 0 0.14786 0 0.26113 0 0.1124 0 0.1124zm0 0t0.1124 0q0.11327 0 0.26112 0 0.14786 0 0.26026 0 0.11327 0 0.11327 0t0-0.1124q0-0.11327 0-0.26113 0-0.14785 0-0.26026 0-0.11327 0-0.11327t-0.11327 0q-0.1124 0-0.26026 0-0.14786 0-0.26112 0-0.1124 0-0.1124 0t0 0.11327q0 0.11241 0 0.26026 0 0.14786 0 0.26113 0 0.1124 0 0.1124zm0 0t0.1124 0q0.11327 0 0.26112 0 0.14786 0 0.26026 0 0.11327 0 0.11327 0t0-0.1124q0-0.11327 0-0.26113 0-0.14785 0-0.26026 0-0.11327 0-0.11327t-0.11327 0q-0.1124 0-0.26026 0-0.14786 0-0.26112 0-0.1124 0-0.1124 0t0 0.11327q0 0.11241 0 0.26026 0 0.14786 0 0.26113 0 0.1124 0 0.1124zm0.62255 0t0.1124 0q0.11327 0 0.26112 0t0.26026 0q0.11327 0 0.11327 0t0-0.1124q0-0.11327 0-0.26113 0-0.14785 0-0.26026 0-0.11327 0-0.11327t-0.11327 0q-0.1124 0-0.26026 0t-0.26112 0q-0.1124 0-0.1124 0t0 0.11327q0 0.11241 0 0.26026 0 0.14786 0 0.26113 0 0.1124 0 0.1124zm0 0t0.1124 0q0.11327 0 0.26112 0t0.26026 0q0.11327 0 0.11327 0t0-0.1124q0-0.11327 0-0.26113 0-0.14785 0-0.26026 0-0.11327 0-0.11327t-0.11327 0q-0.1124 0-0.26026 0t-0.26112 0q-0.1124 0-0.1124 0t0 0.11327q0 0.11241 0 0.26026 0 0.14786 0 0.26113 0 0.1124 0 0.1124zm0 0t0.1124 0q0.11327 0 0.26112 0t0.26026 0q0.11327 0 0.11327 0t0-0.1124q0-0.11327 0-0.26113 0-0.14785 0-0.26026 0-0.11327 0-0.11327t-0.11327 0q-0.1124 0-0.26026 0t-0.26112 0q-0.1124 0-0.1124 0t0 0.11327q0 0.11241 0 0.26026 0 0.14786 0 0.26113 0 0.1124 0 0.1124zm0 0t0.1124 0q0.11327 0 0.26112 0t0.26026 0q0.11327 0 0.11327 0t0-0.1124q0-0.11327 0-0.26113 0-0.14785 0-0.26026 0-0.11327 0-0.11327t-0.11327 0q-0.1124 0-0.26026 0t-0.26112 0q-0.1124 0-0.1124 0t0 0.11327q0 0.11241 0 0.26026 0 0.14786 0 0.26113 0 0.1124 0 0.1124zm-2.0752-0.41503t0.1124 0q0.11327 0 0.26112 0 0.14786 0 0.26026 0 0.11327 0 0.11327 0t0-0.11241q0-0.11327 0-0.26112 0-0.14786 0-0.26026 0-0.11327 0-0.11327t-0.11327 0q-0.1124 0-0.26026 0-0.14786 0-0.26112 0-0.1124 0-0.1124 0t0 0.11327q0 0.1124 0 0.26026 0 0.14785 0 0.26112 0 0.11241 0 0.11241zm0 0t0.1124 0q0.11327 0 0.26112 0 0.14786 0 0.26026 0 0.11327 0 0.11327 0t0-0.11241q0-0.11327 0-0.26112 0-0.14786 0-0.26026 0-0.11327 0-0.11327t-0.11327 0q-0.1124 0-0.26026 0-0.14786 0-0.26112 0-0.1124 0-0.1124 0t0 0.11327q0 0.1124 0 0.26026 0 0.14785 0 0.26112 0 0.11241 0 0.11241zm0 0t0.1124 0q0.11327 0 0.26112 0 0.14786 0 0.26026 0 0.11327 0 0.11327 0t0-0.11241q0-0.11327 0-0.26112 0-0.14786 0-0.26026 0-0.11327 0-0.11327t-0.11327 0q-0.1124 0-0.26026 0-0.14786 0-0.26112 0-0.1124 0-0.1124 0t0 0.11327q0 0.1124 0 0.26026 0 0.14785 0 0.26112 0 0.11241 0 0.11241zm0 0t0.1124 0q0.11327 0 0.26112 0 0.14786 0 0.26026 0 0.11327 0 0.11327 0t0-0.11241q0-0.11327 0-0.26112 0-0.14786 0-0.26026 0-0.11327 0-0.11327t-0.11327 0q-0.1124 0-0.26026 0-0.14786 0-0.26112 0-0.1124 0-0.1124 0t0 0.11327q0 0.1124 0 0.26026 0 0.14785 0 0.26112 0 0.11241 0 0.11241zm1.2451 0t0.1124 0q0.11327 0 0.26112 0 0.14786 0 0.26026 0 0.11327 0 0.11327 0t0-0.11241q0-0.11327 0-0.26112 0-0.14786 0-0.26026 0-0.11327 0-0.11327t-0.11327 0q-0.1124 0-0.26026 0-0.14786 0-0.26112 0-0.1124 0-0.1124 0t0 0.11327q0 0.1124 0 0.26026 0 0.14785 0 0.26112 0 0.11241 0 0.11241zm0 0t0.1124 0q0.11327 0 0.26112 0 0.14786 0 0.26026 0 0.11327 0 0.11327 0t0-0.11241q0-0.11327 0-0.26112 0-0.14786 0-0.26026 0-0.11327 0-0.11327t-0.11327 0q-0.1124 0-0.26026 0-0.14786 0-0.26112 0-0.1124 0-0.1124 0t0 0.11327q0 0.1124 0 0.26026 0 0.14785 0 0.26112 0 0.11241 0 0.11241zm0 0t0.1124 0q0.11327 0 0.26112 0 0.14786 0 0.26026 0 0.11327 0 0.11327 0t0-0.11241q0-0.11327 0-0.26112 0-0.14786 0-0.26026 0-0.11327 0-0.11327t-0.11327 0q-0.1124 0-0.26026 0-0.14786 0-0.26112 0-0.1124 0-0.1124 0t0 0.11327q0 0.1124 0 0.26026 0 0.14785 0 0.26112 0 0.11241 0 0.11241zm0 0t0.1124 0q0.11327 0 0.26112 0 0.14786 0 0.26026 0 0.11327 0 0.11327 0t0-0.11241q0-0.11327 0-0.26112 0-0.14786 0-0.26026 0-0.11327 0-0.11327t-0.11327 0q-0.1124 0-0.26026 0-0.14786 0-0.26112 0-0.1124 0-0.1124 0t0 0.11327q0 0.1124 0 0.26026 0 0.14785 0 0.26112 0 0.11241 0 0.11241zm0.83007 0t0.1124 0q0.11327 0 0.26112 0t0.26026 0q0.11327 0 0.11327 0t0-0.11241q0-0.11327 0-0.26112 0-0.14786 0-0.26026 0-0.11327 0-0.11327t-0.11327 0q-0.1124 0-0.26026 0t-0.26112 0q-0.1124 0-0.1124 0t0 0.11327q0 0.1124 0 0.26026 0 0.14785 0 0.26112 0 0.11241 0 0.11241zm0 0t0.1124 0q0.11327 0 0.26112 0t0.26026 0q0.11327 0 0.11327 0t0-0.11241q0-0.11327 0-0.26112 0-0.14786 0-0.26026 0-0.11327 0-0.11327t-0.11327 0q-0.1124 0-0.26026 0t-0.26112 0q-0.1124 0-0.1124 0t0 0.11327q0 0.1124 0 0.26026 0 0.14785 0 0.26112 0 0.11241 0 0.11241zm0 0t0.1124 0q0.11327 0 0.26112 0t0.26026 0q0.11327 0 0.11327 0t0-0.11241q0-0.11327 0-0.26112 0-0.14786 0-0.26026 0-0.11327 0-0.11327t-0.11327 0q-0.1124 0-0.26026 0t-0.26112 0q-0.1124 0-0.1124 0t0 0.11327q0 0.1124 0 0.26026 0 0.14785 0 0.26112 0 0.11241 0 0.11241zm0 0t0.1124 0q0.11327 0 0.26112 0t0.26026 0q0.11327 0 0.11327 0t0-0.11241q0-0.11327 0-0.26112 0-0.14786 0-0.26026 0-0.11327 0-0.11327t-0.11327 0q-0.1124 0-0.26026 0t-0.26112 0q-0.1124 0-0.1124 0t0 0.11327q0 0.1124 0 0.26026 0 0.14785 0 0.26112 0 0.11241 0 0.11241zm-2.0752-0.41503t0.1124 0q0.11327 0 0.26112 0 0.14786 0 0.26026 0 0.11327 0 0.11327 0t0-0.11241q0-0.11327 0-0.26112 0-0.14786 0-0.26026 0-0.11327 0-0.11327t-0.11327 0q-0.1124 0-0.26026 0-0.14786 0-0.26112 0-0.1124 0-0.1124 0t0 0.11327q0 0.1124 0 0.26026 0 0.14785 0 0.26112 0 0.11241 0 0.11241zm0 0t0.1124 0q0.11327 0 0.26112 0 0.14786 0 0.26026 0 0.11327 0 0.11327 0t0-0.11241q0-0.11327 0-0.26112 0-0.14786 0-0.26026 0-0.11327 0-0.11327t-0.11327 0q-0.1124 0-0.26026 0-0.14786 0-0.26112 0-0.1124 0-0.1124 0t0 0.11327q0 0.1124 0 0.26026 0 0.14785 0 0.26112 0 0.11241 0 0.11241zm0 0t0.1124 0q0.11327 0 0.26112 0 0.14786 0 0.26026 0 0.11327 0 0.11327 0t0-0.11241q0-0.11327 0-0.26112 0-0.14786 0-0.26026 0-0.11327 0-0.11327t-0.11327 0q-0.1124 0-0.26026 0-0.14786 0-0.26112 0-0.1124 0-0.1124 0t0 0.11327q0 0.1124 0 0.26026 0 0.14785 0 0.26112 0 0.11241 0 0.11241zm0 0t0.1124 0q0.11327 0 0.26112 0 0.14786 0 0.26026 0 0.11327 0 0.11327 0t0-0.11241q0-0.11327 0-0.26112 0-0.14786 0-0.26026 0-0.11327 0-0.11327t-0.11327 0q-0.1124 0-0.26026 0-0.14786 0-0.26112 0-0.1124 0-0.1124 0t0 0.11327q0 0.1124 0 0.26026 0 0.14785 0 0.26112 0 0.11241 0 0.11241zm1.0376 0t0.1124 0q0.11327 0 0.26112 0 0.14786 0 0.26026 0 0.11327 0 0.11327 0t0-0.11241q0-0.11327 0-0.26112 0-0.14786 0-0.26026 0-0.11327 0-0.11327t-0.11327 0q-0.1124 0-0.26026 0-0.14786 0-0.26112 0-0.1124 0-0.1124 0t0 0.11327q0 0.1124 0 0.26026 0 0.14785 0 0.26112 0 0.11241 0 0.11241zm0 0t0.1124 0q0.11327 0 0.26112 0 0.14786 0 0.26026 0 0.11327 0 0.11327 0t0-0.11241q0-0.11327 0-0.26112 0-0.14786 0-0.26026 0-0.11327 0-0.11327t-0.11327 0q-0.1124 0-0.26026 0-0.14786 0-0.26112 0-0.1124 0-0.1124 0t0 0.11327q0 0.1124 0 0.26026 0 0.14785 0 0.26112 0 0.11241 0 0.11241zm0 0t0.1124 0q0.11327 0 0.26112 0 0.14786 0 0.26026 0 0.11327 0 0.11327 0t0-0.11241q0-0.11327 0-0.26112 0-0.14786 0-0.26026 0-0.11327 0-0.11327t-0.11327 0q-0.1124 0-0.26026 0-0.14786 0-0.26112 0-0.1124 0-0.1124 0t0 0.11327q0 0.1124 0 0.26026 0 0.14785 0 0.26112 0 0.11241 0 0.11241zm0 0t0.1124 0q0.11327 0 0.26112 0 0.14786 0 0.26026 0 0.11327 0 0.11327 0t0-0.11241q0-0.11327 0-0.26112 0-0.14786 0-0.26026 0-0.11327 0-0.11327t-0.11327 0q-0.1124 0-0.26026 0-0.14786 0-0.26112 0-0.1124 0-0.1124 0t0 0.11327q0 0.1124 0 0.26026 0 0.14785 0 0.26112 0 0.11241 0 0.11241zm1.0376 0t0.1124 0q0.11327 0 0.26112 0t0.26026 0q0.11327 0 0.11327 0t0-0.11241q0-0.11327 0-0.26112 0-0.14786 0-0.26026 0-0.11327 0-0.11327t-0.11327 0q-0.1124 0-0.26026 0t-0.26112 0q-0.1124 0-0.1124 0t0 0.11327q0 0.1124 0 0.26026 0 0.14785 0 0.26112 0 0.11241 0 0.11241zm0 0t0.1124 0q0.11327 0 0.26112 0t0.26026 0q0.11327 0 0.11327 0t0-0.11241q0-0.11327 0-0.26112 0-0.14786 0-0.26026 0-0.11327 0-0.11327t-0.11327 0q-0.1124 0-0.26026 0t-0.26112 0q-0.1124 0-0.1124 0t0 0.11327q0 0.1124 0 0.26026 0 0.14785 0 0.26112 0 0.11241 0 0.11241zm0 0t0.1124 0q0.11327 0 0.26112 0t0.26026 0q0.11327 0 0.11327 0t0-0.11241q0-0.11327 0-0.26112 0-0.14786 0-0.26026 0-0.11327 0-0.11327t-0.11327 0q-0.1124 0-0.26026 0t-0.26112 0q-0.1124 0-0.1124 0t0 0.11327q0 0.1124 0 0.26026 0 0.14785 0 0.26112 0 0.11241 0 0.11241zm0 0t0.1124 0q0.11327 0 0.26112 0t0.26026 0q0.11327 0 0.11327 0t0-0.11241q0-0.11327 0-0.26112 0-0.14786 0-0.26026 0-0.11327 0-0.11327t-0.11327 0q-0.1124 0-0.26026 0t-0.26112 0q-0.1124 0-0.1124 0t0 0.11327q0 0.1124 0 0.26026 0 0.14785 0 0.26112 0 0.11241 0 0.11241zm-2.0752-0.41504t0.1124 0q0.11327 0 0.26112 0 0.14786 0 0.26026 0 0.11327 0 0.11327 0t0-0.1124q0-0.11327 0-0.26113 0-0.14785 0-0.26026 0-0.11327 0-0.11327t-0.11327 0q-0.1124 0-0.26026 0-0.14786 0-0.26112 0-0.1124 0-0.1124 0t0 0.11327q0 0.11241 0 0.26026 0 0.14786 0 0.26113 0 0.1124 0 0.1124zm0 0t0.1124 0q0.11327 0 0.26112 0 0.14786 0 0.26026 0 0.11327 0 0.11327 0t0-0.1124q0-0.11327 0-0.26113 0-0.14785 0-0.26026 0-0.11327 0-0.11327t-0.11327 0q-0.1124 0-0.26026 0-0.14786 0-0.26112 0-0.1124 0-0.1124 0t0 0.11327q0 0.11241 0 0.26026 0 0.14786 0 0.26113 0 0.1124 0 0.1124zm0 0t0.1124 0q0.11327 0 0.26112 0 0.14786 0 0.26026 0 0.11327 0 0.11327 0t0-0.1124q0-0.11327 0-0.26113 0-0.14785 0-0.26026 0-0.11327 0-0.11327t-0.11327 0q-0.1124 0-0.26026 0-0.14786 0-0.26112 0-0.1124 0-0.1124 0t0 0.11327q0 0.11241 0 0.26026 0 0.14786 0 0.26113 0 0.1124 0 0.1124zm0 0t0.1124 0q0.11327 0 0.26112 0 0.14786 0 0.26026 0 0.11327 0 0.11327 0t0-0.1124q0-0.11327 0-0.26113 0-0.14785 0-0.26026 0-0.11327 0-0.11327t-0.11327 0q-0.1124 0-0.26026 0-0.14786 0-0.26112 0-0.1124 0-0.1124 0t0 0.11327q0 0.11241 0 0.26026 0 0.14786 0 0.26113 0 0.1124 0 0.1124zm0.83007 0t0.1124 0q0.11327 0 0.26112 0 0.14786 0 0.26026 0 0.11327 0 0.11327 0t0-0.1124q0-0.11327 0-0.26113 0-0.14785 0-0.26026 0-0.11327 0-0.11327t-0.11327 0q-0.1124 0-0.26026 0-0.14786 0-0.26112 0-0.1124 0-0.1124 0t0 0.11327q0 0.11241 0 0.26026 0 0.14786 0 0.26113 0 0.1124 0 0.1124zm0 0t0.1124 0q0.11327 0 0.26112 0 0.14786 0 0.26026 0 0.11327 0 0.11327 0t0-0.1124q0-0.11327 0-0.26113 0-0.14785 0-0.26026 0-0.11327 0-0.11327t-0.11327 0q-0.1124 0-0.26026 0-0.14786 0-0.26112 0-0.1124 0-0.1124 0t0 0.11327q0 0.11241 0 0.26026 0 0.14786 0 0.26113 0 0.1124 0 0.1124zm0 0t0.1124 0q0.11327 0 0.26112 0 0.14786 0 0.26026 0 0.11327 0 0.11327 0t0-0.1124q0-0.11327 0-0.26113 0-0.14785 0-0.26026 0-0.11327 0-0.11327t-0.11327 0q-0.1124 0-0.26026 0-0.14786 0-0.26112 0-0.1124 0-0.1124 0t0 0.11327q0 0.11241 0 0.26026 0 0.14786 0 0.26113 0 0.1124 0 0.1124zm0 0t0.1124 0q0.11327 0 0.26112 0 0.14786 0 0.26026 0 0.11327 0 0.11327 0t0-0.1124q0-0.11327 0-0.26113 0-0.14785 0-0.26026 0-0.11327 0-0.11327t-0.11327 0q-0.1124 0-0.26026 0-0.14786 0-0.26112 0-0.1124 0-0.1124 0t0 0.11327q0 0.11241 0 0.26026 0 0.14786 0 0.26113 0 0.1124 0 0.1124zm1.2451 0t0.1124 0q0.11327 0 0.26112 0t0.26026 0q0.11327 0 0.11327 0t0-0.1124q0-0.11327 0-0.26113 0-0.14785 0-0.26026 0-0.11327 0-0.11327t-0.11327 0q-0.1124 0-0.26026 0t-0.26112 0q-0.1124 0-0.1124 0t0 0.11327q0 0.11241 0 0.26026 0 0.14786 0 0.26113 0 0.1124 0 0.1124zm0 0t0.1124 0q0.11327 0 0.26112 0t0.26026 0q0.11327 0 0.11327 0t0-0.1124q0-0.11327 0-0.26113 0-0.14785 0-0.26026 0-0.11327 0-0.11327t-0.11327 0q-0.1124 0-0.26026 0t-0.26112 0q-0.1124 0-0.1124 0t0 0.11327q0 0.11241 0 0.26026 0 0.14786 0 0.26113 0 0.1124 0 0.1124zm0 0t0.1124 0q0.11327 0 0.26112 0t0.26026 0q0.11327 0 0.11327 0t0-0.1124q0-0.11327 0-0.26113 0-0.14785 0-0.26026 0-0.11327 0-0.11327t-0.11327 0q-0.1124 0-0.26026 0t-0.26112 0q-0.1124 0-0.1124 0t0 0.11327q0 0.11241 0 0.26026 0 0.14786 0 0.26113 0 0.1124 0 0.1124zm0 0t0.1124 0q0.11327 0 0.26112 0t0.26026 0q0.11327 0 0.11327 0t0-0.1124q0-0.11327 0-0.26113 0-0.14785 0-0.26026 0-0.11327 0-0.11327t-0.11327 0q-0.1124 0-0.26026 0t-0.26112 0q-0.1124 0-0.1124 0t0 0.11327q0 0.11241 0 0.26026 0 0.14786 0 0.26113 0 0.1124 0 0.1124zm-2.0752-0.41503t0.1124 0q0.11327 0 0.26112 0 0.14786 0 0.26026 0 0.11327 0 0.11327 0t0-0.1124q0-0.11327 0-0.26113 0-0.14785 0-0.26026 0-0.11327 0-0.11327t-0.11327 0q-0.1124 0-0.26026 0-0.14786 0-0.26112 0-0.1124 0-0.1124 0t0 0.11327q0 0.11241 0 0.26026 0 0.14786 0 0.26113 0 0.1124 0 0.1124zm0 0t0.1124 0q0.11327 0 0.26112 0 0.14786 0 0.26026 0 0.11327 0 0.11327 0t0-0.1124q0-0.11327 0-0.26113 0-0.14785 0-0.26026 0-0.11327 0-0.11327t-0.11327 0q-0.1124 0-0.26026 0-0.14786 0-0.26112 0-0.1124 0-0.1124 0t0 0.11327q0 0.11241 0 0.26026 0 0.14786 0 0.26113 0 0.1124 0 0.1124zm0 0t0.1124 0q0.11327 0 0.26112 0 0.14786 0 0.26026 0 0.11327 0 0.11327 0t0-0.1124q0-0.11327 0-0.26113 0-0.14785 0-0.26026 0-0.11327 0-0.11327t-0.11327 0q-0.1124 0-0.26026 0-0.14786 0-0.26112 0-0.1124 0-0.1124 0t0 0.11327q0 0.11241 0 0.26026 0 0.14786 0 0.26113 0 0.1124 0 0.1124zm0 0t0.1124 0q0.11327 0 0.26112 0 0.14786 0 0.26026 0 0.11327 0 0.11327 0t0-0.1124q0-0.11327 0-0.26113 0-0.14785 0-0.26026 0-0.11327 0-0.11327t-0.11327 0q-0.1124 0-0.26026 0-0.14786 0-0.26112 0-0.1124 0-0.1124 0t0 0.11327q0 0.11241 0 0.26026 0 0.14786 0 0.26113 0 0.1124 0 0.1124zm0.62255 0t0.1124 0q0.11327 0 0.26112 0 0.14786 0 0.26026 0 0.11327 0 0.11327 0t0-0.1124q0-0.11327 0-0.26113 0-0.14785 0-0.26026 0-0.11327 0-0.11327t-0.11327 0q-0.1124 0-0.26026 0-0.14786 0-0.26112 0-0.1124 0-0.1124 0t0 0.11327q0 0.11241 0 0.26026 0 0.14786 0 0.26113 0 0.1124 0 0.1124zm0 0t0.1124 0q0.11327 0 0.26112 0 0.14786 0 0.26026 0 0.11327 0 0.11327 0t0-0.1124q0-0.11327 0-0.26113 0-0.14785 0-0.26026 0-0.11327 0-0.11327t-0.11327 0q-0.1124 0-0.26026 0-0.14786 0-0.26112 0-0.1124 0-0.1124 0t0 0.11327q0 0.11241 0 0.26026 0 0.14786 0 0.26113 0 0.1124 0 0.1124zm0 0t0.1124 0q0.11327 0 0.26112 0 0.14786 0 0.26026 0 0.11327 0 0.11327 0t0-0.1124q0-0.11327 0-0.26113 0-0.14785 0-0.26026 0-0.11327 0-0.11327t-0.11327 0q-0.1124 0-0.26026 0-0.14786 0-0.26112 0-0.1124 0-0.1124 0t0 0.11327q0 0.11241 0 0.26026 0 0.14786 0 0.26113 0 0.1124 0 0.1124zm0 0t0.1124 0q0.11327 0 0.26112 0 0.14786 0 0.26026 0 0.11327 0 0.11327 0t0-0.1124q0-0.11327 0-0.26113 0-0.14785 0-0.26026 0-0.11327 0-0.11327t-0.11327 0q-0.1124 0-0.26026 0-0.14786 0-0.26112 0-0.1124 0-0.1124 0t0 0.11327q0 0.11241 0 0.26026 0 0.14786 0 0.26113 0 0.1124 0 0.1124zm1.4526 0t0.1124 0q0.11327 0 0.26112 0t0.26026 0q0.11327 0 0.11327 0t0-0.1124q0-0.11327 0-0.26113 0-0.14785 0-0.26026 0-0.11327 0-0.11327t-0.11327 0q-0.1124 0-0.26026 0t-0.26112 0q-0.1124 0-0.1124 0t0 0.11327q0 0.11241 0 0.26026 0 0.14786 0 0.26113 0 0.1124 0 0.1124zm0 0t0.1124 0q0.11327 0 0.26112 0t0.26026 0q0.11327 0 0.11327 0t0-0.1124q0-0.11327 0-0.26113 0-0.14785 0-0.26026 0-0.11327 0-0.11327t-0.11327 0q-0.1124 0-0.26026 0t-0.26112 0q-0.1124 0-0.1124 0t0 0.11327q0 0.11241 0 0.26026 0 0.14786 0 0.26113 0 0.1124 0 0.1124zm0 0t0.1124 0q0.11327 0 0.26112 0t0.26026 0q0.11327 0 0.11327 0t0-0.1124q0-0.11327 0-0.26113 0-0.14785 0-0.26026 0-0.11327 0-0.11327t-0.11327 0q-0.1124 0-0.26026 0t-0.26112 0q-0.1124 0-0.1124 0t0 0.11327q0 0.11241 0 0.26026 0 0.14786 0 0.26113 0 0.1124 0 0.1124zm0 0t0.1124 0q0.11327 0 0.26112 0t0.26026 0q0.11327 0 0.11327 0t0-0.1124q0-0.11327 0-0.26113 0-0.14785 0-0.26026 0-0.11327 0-0.11327t-0.11327 0q-0.1124 0-0.26026 0t-0.26112 0q-0.1124 0-0.1124 0t0 0.11327q0 0.11241 0 0.26026 0 0.14786 0 0.26113 0 0.1124 0 0.1124zm-2.0752-0.41503t0.1124 0q0.11327 0 0.26112 0 0.14786 0 0.26026 0 0.11327 0 0.11327 0t0-0.11241q0-0.11327 0-0.26112 0-0.14786 0-0.26026 0-0.11327 0-0.11327t-0.11327 0q-0.1124 0-0.26026 0-0.14786 0-0.26112 0-0.1124 0-0.1124 0t0 0.11327q0 0.1124 0 0.26026 0 0.14785 0 0.26112 0 0.11241 0 0.11241zm0 0t0.1124 0q0.11327 0 0.26112 0 0.14786 0 0.26026 0 0.11327 0 0.11327 0t0-0.11241q0-0.11327 0-0.26112 0-0.14786 0-0.26026 0-0.11327 0-0.11327t-0.11327 0q-0.1124 0-0.26026 0-0.14786 0-0.26112 0-0.1124 0-0.1124 0t0 0.11327q0 0.1124 0 0.26026 0 0.14785 0 0.26112 0 0.11241 0 0.11241zm0 0t0.1124 0q0.11327 0 0.26112 0 0.14786 0 0.26026 0 0.11327 0 0.11327 0t0-0.11241q0-0.11327 0-0.26112 0-0.14786 0-0.26026 0-0.11327 0-0.11327t-0.11327 0q-0.1124 0-0.26026 0-0.14786 0-0.26112 0-0.1124 0-0.1124 0t0 0.11327q0 0.1124 0 0.26026 0 0.14785 0 0.26112 0 0.11241 0 0.11241zm0 0t0.1124 0q0.11327 0 0.26112 0 0.14786 0 0.26026 0 0.11327 0 0.11327 0t0-0.11241q0-0.11327 0-0.26112 0-0.14786 0-0.26026 0-0.11327 0-0.11327t-0.11327 0q-0.1124 0-0.26026 0-0.14786 0-0.26112 0-0.1124 0-0.1124 0t0 0.11327q0 0.1124 0 0.26026 0 0.14785 0 0.26112 0 0.11241 0 0.11241zm0.41503 0t0.1124 0q0.11327 0 0.26112 0 0.14786 0 0.26026 0 0.11327 0 0.11327 0t0-0.11241q0-0.11327 0-0.26112 0-0.14786 0-0.26026 0-0.11327 0-0.11327t-0.11327 0q-0.1124 0-0.26026 0-0.14786 0-0.26112 0-0.1124 0-0.1124 0t0 0.11327q0 0.1124 0 0.26026 0 0.14785 0 0.26112 0 0.11241 0 0.11241zm0 0t0.1124 0q0.11327 0 0.26112 0 0.14786 0 0.26026 0 0.11327 0 0.11327 0t0-0.11241q0-0.11327 0-0.26112 0-0.14786 0-0.26026 0-0.11327 0-0.11327t-0.11327 0q-0.1124 0-0.26026 0-0.14786 0-0.26112 0-0.1124 0-0.1124 0t0 0.11327q0 0.1124 0 0.26026 0 0.14785 0 0.26112 0 0.11241 0 0.11241zm0 0t0.1124 0q0.11327 0 0.26112 0 0.14786 0 0.26026 0 0.11327 0 0.11327 0t0-0.11241q0-0.11327 0-0.26112 0-0.14786 0-0.26026 0-0.11327 0-0.11327t-0.11327 0q-0.1124 0-0.26026 0-0.14786 0-0.26112 0-0.1124 0-0.1124 0t0 0.11327q0 0.1124 0 0.26026 0 0.14785 0 0.26112 0 0.11241 0 0.11241zm0 0t0.1124 0q0.11327 0 0.26112 0 0.14786 0 0.26026 0 0.11327 0 0.11327 0t0-0.11241q0-0.11327 0-0.26112 0-0.14786 0-0.26026 0-0.11327 0-0.11327t-0.11327 0q-0.1124 0-0.26026 0-0.14786 0-0.26112 0-0.1124 0-0.1124 0t0 0.11327q0 0.1124 0 0.26026 0 0.14785 0 0.26112 0 0.11241 0 0.11241zm1.6601 0t0.1124 0q0.11327 0 0.26112 0t0.26026 0q0.11327 0 0.11327 0t0-0.11241q0-0.11327 0-0.26112 0-0.14786 0-0.26026 0-0.11327 0-0.11327t-0.11327 0q-0.1124 0-0.26026 0t-0.26112 0q-0.1124 0-0.1124 0t0 0.11327q0 0.1124 0 0.26026 0 0.14785 0 0.26112 0 0.11241 0 0.11241zm0 0t0.1124 0q0.11327 0 0.26112 0t0.26026 0q0.11327 0 0.11327 0t0-0.11241q0-0.11327 0-0.26112 0-0.14786 0-0.26026 0-0.11327 0-0.11327t-0.11327 0q-0.1124 0-0.26026 0t-0.26112 0q-0.1124 0-0.1124 0t0 0.11327q0 0.1124 0 0.26026 0 0.14785 0 0.26112 0 0.11241 0 0.11241zm0 0t0.1124 0q0.11327 0 0.26112 0t0.26026 0q0.11327 0 0.11327 0t0-0.11241q0-0.11327 0-0.26112 0-0.14786 0-0.26026 0-0.11327 0-0.11327t-0.11327 0q-0.1124 0-0.26026 0t-0.26112 0q-0.1124 0-0.1124 0t0 0.11327q0 0.1124 0 0.26026 0 0.14785 0 0.26112 0 0.11241 0 0.11241zm0 0t0.1124 0q0.11327 0 0.26112 0t0.26026 0q0.11327 0 0.11327 0t0-0.11241q0-0.11327 0-0.26112 0-0.14786 0-0.26026 0-0.11327 0-0.11327t-0.11327 0q-0.1124 0-0.26026 0t-0.26112 0q-0.1124 0-0.1124 0t0 0.11327q0 0.1124 0 0.26026 0 0.14785 0 0.26112 0 0.11241 0 0.11241zm-2.0752-0.41504t0.1124 0q0.11327 0 0.26112 0 0.14786 0 0.26026 0 0.11327 0 0.11327 0t0-0.1124q0-0.11327 0-0.26113 0-0.14785 0-0.26026 0-0.11326 0-0.11326t-0.11327 0q-0.1124 0-0.26026 0-0.14786 0-0.26112 0-0.1124 0-0.1124 0t0 0.11326q0 0.11241 0 0.26026 0 0.14786 0 0.26113 0 0.1124 0 0.1124zm0 0t0.1124 0q0.11327 0 0.26112 0 0.14786 0 0.26026 0 0.11327 0 0.11327 0t0-0.1124q0-0.11327 0-0.26113 0-0.14785 0-0.26026 0-0.11326 0-0.11326t-0.11327 0q-0.1124 0-0.26026 0-0.14786 0-0.26112 0-0.1124 0-0.1124 0t0 0.11326q0 0.11241 0 0.26026 0 0.14786 0 0.26113 0 0.1124 0 0.1124zm0 0t0.1124 0q0.11327 0 0.26112 0 0.14786 0 0.26026 0 0.11327 0 0.11327 0t0-0.1124q0-0.11327 0-0.26113 0-0.14785 0-0.26026 0-0.11326 0-0.11326t-0.11327 0q-0.1124 0-0.26026 0-0.14786 0-0.26112 0-0.1124 0-0.1124 0t0 0.11326q0 0.11241 0 0.26026 0 0.14786 0 0.26113 0 0.1124 0 0.1124zm0 0t0.1124 0q0.11327 0 0.26112 0 0.14786 0 0.26026 0 0.11327 0 0.11327 0t0-0.1124q0-0.11327 0-0.26113 0-0.14785 0-0.26026 0-0.11326 0-0.11326t-0.11327 0q-0.1124 0-0.26026 0-0.14786 0-0.26112 0-0.1124 0-0.1124 0t0 0.11326q0 0.11241 0 0.26026 0 0.14786 0 0.26113 0 0.1124 0 0.1124zm2.0752 0t0.1124 0q0.11327 0 0.26112 0t0.26026 0q0.11327 0 0.11327 0t0-0.1124q0-0.11327 0-0.26113 0-0.14785 0-0.26026 0-0.11326 0-0.11326t-0.11327 0q-0.1124 0-0.26026 0t-0.26112 0q-0.1124 0-0.1124 0t0 0.11326q0 0.11241 0 0.26026 0 0.14786 0 0.26113 0 0.1124 0 0.1124zm0 0t0.1124 0q0.11327 0 0.26112 0t0.26026 0q0.11327 0 0.11327 0t0-0.1124q0-0.11327 0-0.26113 0-0.14785 0-0.26026 0-0.11326 0-0.11326t-0.11327 0q-0.1124 0-0.26026 0t-0.26112 0q-0.1124 0-0.1124 0t0 0.11326q0 0.11241 0 0.26026 0 0.14786 0 0.26113 0 0.1124 0 0.1124zm0 0t0.1124 0q0.11327 0 0.26112 0t0.26026 0q0.11327 0 0.11327 0t0-0.1124q0-0.11327 0-0.26113 0-0.14785 0-0.26026 0-0.11326 0-0.11326t-0.11327 0q-0.1124 0-0.26026 0t-0.26112 0q-0.1124 0-0.1124 0t0 0.11326q0 0.11241 0 0.26026 0 0.14786 0 0.26113 0 0.1124 0 0.1124zm0 0t0.1124 0q0.11327 0 0.26112 0t0.26026 0q0.11327 0 0.11327 0t0-0.1124q0-0.11327 0-0.26113 0-0.14785 0-0.26026 0-0.11326 0-0.11326t-0.11327 0q-0.1124 0-0.26026 0t-0.26112 0q-0.1124 0-0.1124 0t0 0.11326q0 0.11241 0 0.26026 0 0.14786 0 0.26113 0 0.1124 0 0.1124zm-2.0752-0.41503t0.1124 0q0.11327 0 0.26112 0 0.14786 0 0.26026 0 0.11327 0 0.11327 0t0-0.1124q0-0.11327 0-0.26113 0-0.14785 0-0.26026 0-0.11327 0-0.11327t-0.11327 0q-0.1124 0-0.26026 0-0.14786 0-0.26112 0-0.1124 0-0.1124 0t0 0.11327q0 0.11241 0 0.26026 0 0.14786 0 0.26113 0 0.1124 0 0.1124zm0 0t0.1124 0q0.11327 0 0.26112 0 0.14786 0 0.26026 0 0.11327 0 0.11327 0t0-0.1124q0-0.11327 0-0.26113 0-0.14785 0-0.26026 0-0.11327 0-0.11327t-0.11327 0q-0.1124 0-0.26026 0-0.14786 0-0.26112 0-0.1124 0-0.1124 0t0 0.11327q0 0.11241 0 0.26026 0 0.14786 0 0.26113 0 0.1124 0 0.1124zm0 0t0.1124 0q0.11327 0 0.26112 0 0.14786 0 0.26026 0 0.11327 0 0.11327 0t0-0.1124q0-0.11327 0-0.26113 0-0.14785 0-0.26026 0-0.11327 0-0.11327t-0.11327 0q-0.1124 0-0.26026 0-0.14786 0-0.26112 0-0.1124 0-0.1124 0t0 0.11327q0 0.11241 0 0.26026 0 0.14786 0 0.26113 0 0.1124 0 0.1124zm0 0t0.1124 0q0.11327 0 0.26112 0 0.14786 0 0.26026 0 0.11327 0 0.11327 0t0-0.1124q0-0.11327 0-0.26113 0-0.14785 0-0.26026 0-0.11327 0-0.11327t-0.11327 0q-0.1124 0-0.26026 0-0.14786 0-0.26112 0-0.1124 0-0.1124 0t0 0.11327q0 0.11241 0 0.26026 0 0.14786 0 0.26113 0 0.1124 0 0.1124zm2.0752 0t0.1124 0q0.11327 0 0.26112 0t0.26026 0q0.11327 0 0.11327 0t0-0.1124q0-0.11327 0-0.26113 0-0.14785 0-0.26026 0-0.11327 0-0.11327t-0.11327 0q-0.1124 0-0.26026 0t-0.26112 0q-0.1124 0-0.1124 0t0 0.11327q0 0.11241 0 0.26026 0 0.14786 0 0.26113 0 0.1124 0 0.1124zm0 0t0.1124 0q0.11327 0 0.26112 0t0.26026 0q0.11327 0 0.11327 0t0-0.1124q0-0.11327 0-0.26113 0-0.14785 0-0.26026 0-0.11327 0-0.11327t-0.11327 0q-0.1124 0-0.26026 0t-0.26112 0q-0.1124 0-0.1124 0t0 0.11327q0 0.11241 0 0.26026 0 0.14786 0 0.26113 0 0.1124 0 0.1124zm0 0t0.1124 0q0.11327 0 0.26112 0t0.26026 0q0.11327 0 0.11327 0t0-0.1124q0-0.11327 0-0.26113 0-0.14785 0-0.26026 0-0.11327 0-0.11327t-0.11327 0q-0.1124 0-0.26026 0t-0.26112 0q-0.1124 0-0.1124 0t0 0.11327q0 0.11241 0 0.26026 0 0.14786 0 0.26113 0 0.1124 0 0.1124zm0 0t0.1124 0q0.11327 0 0.26112 0t0.26026 0q0.11327 0 0.11327 0t0-0.1124q0-0.11327 0-0.26113 0-0.14785 0-0.26026 0-0.11327 0-0.11327t-0.11327 0q-0.1124 0-0.26026 0t-0.26112 0q-0.1124 0-0.1124 0t0 0.11327q0 0.11241 0 0.26026 0 0.14786 0 0.26113 0 0.1124 0 0.1124z" stroke-width="2.646"/>
  </g>
 </g>
</svg>
