{
	"asset":{
		"generator":"Khronos glTF Blender I/O v3.6.27",
		"version":"2.0"
	},
	"scene":0,
	"scenes":[
		{
			"name":"Scene",
			"nodes":[
				0
			]
		}
	],
	"nodes":[
		{
			"mesh":0,
			"name":"Roof",
			"rotation":[
				0,
				0.7071068286895752,
				-0.7071068286895752,
				3.090862321641907e-08
			],
			"translation":[
				8.656610488891602,
				6.225857734680176,
				0
			]
		}
	],
	"meshes":[
		{
			"name":"Roof",
			"primitives":[
				{
					"attributes":{
						"POSITION":0,
						"NORMAL":1
					},
					"indices":2
				}
			]
		}
	],
	"accessors":[
		{
			"bufferView":0,
			"componentType":5126,
			"count":70845,
			"max":[
				11.096960067749023,
				6.92857551574707,
				5.911858081817627
			],
			"min":[
				6.090803623199463,
				-1.7140017747879028,
				-8.45814323425293
			],
			"type":"VEC3"
		},
		{
			"bufferView":1,
			"componentType":5126,
			"count":70845,
			"type":"VEC3"
		},
		{
			"bufferView":2,
			"componentType":5125,
			"count":101424,
			"type":"SCALAR"
		}
	],
	"bufferViews":[
		{
			"buffer":0,
			"byteLength":850140,
			"byteOffset":0,
			"target":34962
		},
		{
			"buffer":0,
			"byteLength":850140,
			"byteOffset":850140,
			"target":34962
		},
		{
			"buffer":0,
			"byteLength":405696,
			"byteOffset":1700280,
			"target":34963
		}
	],
	"buffers":[
		{
			"byteLength":2105976,
			"uri":"data:application/octet-stream;base64,"
		}
	]
}
