{
	"asset":{
		"generator":"Khronos glTF Blender I/O v3.6.27",
		"version":"2.0"
	},
	"scene":0,
	"scenes":[
		{
			"name":"Scene",
			"nodes":[
				0
			]
		}
	],
	"nodes":[
		{
			"mesh":0,
			"name":"Neck_Gable",
			"rotation":[
				0.7071068286895752,
				0,
				0,
				0.7071068286895752
			],
			"translation":[
				-2.738570213317871,
				0,
				0
			]
		}
	],
	"meshes":[
		{
			"name":"Neck_Gable",
			"primitives":[
				{
					"attributes":{
						"POSITION":0,
						"NORMAL":1
					},
					"indices":2
				}
			]
		}
	],
	"accessors":[
		{
			"bufferView":0,
			"componentType":5126,
			"count":100062,
			"max":[
				5.2900004386901855,
				1.8360000848770142,
				-0.31400012969970703
			],
			"min":[
				0.283843994140625,
				-6.9285759925842285,
				-14.706001281738281
			],
			"type":"VEC3"
		},
		{
			"bufferView":1,
			"componentType":5126,
			"count":100062,
			"type":"VEC3"
		},
		{
			"bufferView":2,
			"componentType":5125,
			"count":141066,
			"type":"SCALAR"
		}
	],
	"bufferViews":[
		{
			"buffer":0,
			"byteLength":1200744,
			"byteOffset":0,
			"target":34962
		},
		{
			"buffer":0,
			"byteLength":1200744,
			"byteOffset":1200744,
			"target":34962
		},
		{
			"buffer":0,
			"byteLength":564264,
			"byteOffset":2401488,
			"target":34963
		}
	],
	"buffers":[
		{
			"byteLength":2965752,
			"uri":"data:application/octet-stream;base64,"
		}
	]
}
