{
	"asset":{
		"generator":"Khronos glTF Blender I/O v3.6.27",
		"version":"2.0"
	},
	"scene":0,
	"scenes":[
		{
			"name":"Scene",
			"nodes":[
				0
			]
		}
	],
	"nodes":[
		{
			"mesh":0,
			"name":"Step_Gable",
			"rotation":[
				0.7071068286895752,
				0,
				0,
				0.7071068286895752
			],
			"translation":[
				-2.7058205604553223,
				0,
				0
			]
		}
	],
	"meshes":[
		{
			"name":"Step_Gable",
			"primitives":[
				{
					"attributes":{
						"POSITION":0,
						"NORMAL":1
					},
					"indices":2
				}
			]
		}
	],
	"accessors":[
		{
			"bufferView":0,
			"componentType":5126,
			"count":67380,
			"max":[
				5.2900004386901855,
				1.784000039100647,
				-0.31400012969970703
			],
			"min":[
				0.283843994140625,
				-6.9285759925842285,
				-14.708001136779785
			],
			"type":"VEC3"
		},
		{
			"bufferView":1,
			"componentType":5126,
			"count":67380,
			"type":"VEC3"
		},
		{
			"bufferView":2,
			"componentType":5125,
			"count":94296,
			"type":"SCALAR"
		}
	],
	"bufferViews":[
		{
			"buffer":0,
			"byteLength":808560,
			"byteOffset":0,
			"target":34962
		},
		{
			"buffer":0,
			"byteLength":808560,
			"byteOffset":808560,
			"target":34962
		},
		{
			"buffer":0,
			"byteLength":377184,
			"byteOffset":1617120,
			"target":34963
		}
	],
	"buffers":[
		{
			"byteLength":1994304,
			"uri":"data:application/octet-stream;base64,"
		}
	]
}
