<?xml version="1.0" standalone="no"?>
<!DOCTYPE svg PUBLIC "-//W3C//DTD SVG 20010904//EN"
 "http://www.w3.org/TR/2001/REC-SVG-20010904/DTD/svg10.dtd">
<svg version="1.0" xmlns="http://www.w3.org/2000/svg"
 width="700.000000pt" height="700.000000pt" viewBox="0 0 700.000000 700.000000"
 preserveAspectRatio="xMidYMid meet">
<metadata>
Created by potrace 1.14, written by Peter Selinger 2001-2017
</metadata>
<g transform="translate(0.000000,700.000000) scale(0.100000,-0.100000)"
fill="#000000" stroke="none">
<path d="M0 3498 l0 -3498 925 0 925 0 0 2075 0 2076 102 -3 102 -3 1 -295 0
-295 250 -1 c138 -1 253 -2 258 -3 4 0 7 -133 7 -295 l0 -293 223 -1 c122 0
238 -1 257 -1 l35 -1 -1 -295 0 -295 257 0 257 0 0 -289 c0 -160 2 -293 5
-298 3 -5 115 -8 249 -8 134 1 248 0 253 -2 6 -2 10 -109 9 -297 l-1 -294 514
2 513 1 1 -25 c0 -14 1 -280 1 -593 l1 -567 926 2 926 3 0 3488 c0 1919 -2
3492 -5 3496 -3 4 -420 7 -927 7 l-921 0 0 -2036 c-1 -1119 -1 -2053 -1 -2076
l-1 -41 -100 1 c-82 0 -100 3 -101 16 -1 8 -2 141 -3 295 l-1 280 -257 0 -257
0 0 230 c0 127 0 260 0 298 l-1 67 -255 0 -255 0 -1 43 c0 23 -1 156 -2 296
l-2 254 -257 0 -257 0 0 266 c0 146 0 280 -1 296 l0 31 -251 -1 c-142 0 -253
4 -257 9 -3 5 -5 139 -5 298 l0 288 -514 0 -513 0 0 88 c-1 48 -2 314 -3 592
l-2 505 -922 0 -923 1 0 -3498z"/>
</g>
</svg>
